<svg xmlns="http://www.w3.org/2000/svg" width="18" height="16" fill="none" viewBox="0 0 18 16">
  <g clip-path="url(#clip0_222_682)">
    <path fill="#fff" fill-rule="evenodd" d="M17.6 16h-3.89v-5.625c0-1.472-.608-2.477-1.946-2.477-1.024 0-1.593.678-1.858 1.332-.1.235-.084.561-.084.888V16H5.97s.05-9.963 0-10.87h3.853v1.707c.228-.746 1.46-1.81 3.425-1.81 2.438 0 4.353 1.563 4.353 4.93V16zM2.072 3.771h-.025C.805 3.771 0 2.941 0 1.887 0 .813.829 0 2.095 0c1.266 0 2.044.811 2.07 1.884 0 1.053-.804 1.887-2.093 1.887zM.444 5.131h3.43V16H.444V5.13z" clip-rule="evenodd"/>
  </g>
  <defs>
    <clipPath id="clip0_222_682">
      <path fill="#fff" d="M0 0h17.6v16H0z"/>
    </clipPath>
  </defs>
</svg>